Coordinates
version=1
nRows=19
nColumns=36
inDegrees=yes

Units are S.I. units (second, meters, Newtons, ...)
If the header above contains a line with 'inDegrees', this indicates whether rotational values are in degrees (yes) or radians (no).

endheader
time	pelvis_tilt	pelvis_list	pelvis_rotation	pelvis_tx	pelvis_ty	pelvis_tz	hip_flexion_r	hip_adduction_r	hip_rotation_r	knee_angle_r	knee_angle_r_beta	ankle_angle_r	subtalar_angle_r	mtp_angle_r	hip_flexion_l	hip_adduction_l	hip_rotation_l	knee_angle_l	knee_angle_l_beta	ankle_angle_l	subtalar_angle_l	mtp_angle_l	lumbar_extension	lumbar_bending	lumbar_rotation	arm_flex_r	arm_add_r	arm_rot_r	elbow_flex_r	pro_sup_r	arm_flex_l	arm_add_l	arm_rot_l	elbow_flex_l	pro_sup_l
      0.00000000	      7.59558757	     -4.77259828	     -5.04181366	      0.56219002	      0.90870323	     -0.10453065	     -7.01021579	     -1.76246534	     -8.71668285	     11.95630868	      0.20867695	      9.62271837	     -4.75654846	     -7.41697243	     -6.89441962	    -11.06819657	     -2.74966144	      8.72357830	      0.15225516	      7.90202465	     -4.07216125	     -7.41697243	    -10.53501923	      6.62462027	     -3.96648863	     66.50618773	     18.65620107	     52.26667050	    104.21615782	     72.92043327	     44.57334167	     24.97906844	    -21.45965191	    147.49214008	    110.41930627
      0.01666670	      7.77222190	     -4.57316541	     -6.91349246	      0.56287249	      0.90573553	     -0.10378646	     -5.88488362	     -2.74982078	     -8.02465112	     14.19572868	      0.24776221	     11.66300759	     -4.43614829	     -7.44846057	     -6.23229039	    -10.80255681	     -4.26172857	     11.23520898	      0.19609139	      9.07101248	     -6.92044892	     -7.44846057	    -11.38540672	      5.69410723	      0.35377321	     70.15134707	     13.19965925	     56.73763604	    114.89364734	     74.40606627	     46.99631441	     21.77232120	     -8.63639522	    147.42262064	    101.57857102
      0.03333330	      7.21256173	     -4.51467735	     -7.04970385	      0.56342620	      0.90510337	     -0.10331829	     -4.92161009	     -2.84028356	     -8.26662643	     15.01942903	      0.26213849	     11.98786506	     -5.43054355	     -7.47253062	     -4.99360837	    -11.04321480	     -4.05696165	     12.58461896	      0.21964304	     10.06277905	     -6.31846896	     -7.47253062	    -10.35143713	      5.71755873	     -0.01836551	     69.34919658	     14.32197357	     56.70521144	    114.91075122	     82.18066720	     46.83350014	     20.29111986	     -7.28333212	    147.92386235	     94.72451758
      0.05000000	      5.89781702	     -4.20260035	     -6.58185886	      0.55840302	      0.90177287	     -0.10728182	     -2.61560250	     -3.25378118	     -8.99172760	     16.60670854	      0.28984174	     13.15910753	     -5.83998533	     -7.47332527	     -2.43003530	    -11.22232753	     -3.54855840	     14.32488647	      0.25001643	     11.18655913	     -5.60190281	     -7.47332527	     -9.14986217	      5.79118445	     -1.94469073	     69.71091322	     16.24319845	     58.44842446	    113.89854246	     82.50993319	     47.03250356	     18.53732477	     -5.74244846	    147.95729965	     94.58638446
      0.06666670	      4.81960671	     -3.98622286	     -6.50530338	      0.55352407	      0.89778229	     -0.10376563	     -0.31567049	     -3.52396258	     -9.22897957	     18.43727973	      0.32179124	     14.56055508	     -6.22651214	     -7.47430055	      0.04816119	    -11.40720778	     -3.24058601	     16.45306079	      0.28716008	     12.64895482	     -5.17428416	     -7.47430055	     -8.94965807	      5.97518539	     -3.89747725	     70.62843938	     18.71795053	     60.19762629	    112.46513428	     82.74656977	     46.09987889	     15.55649257	     -1.86621976	    145.25888284	     94.41571132
      0.08333330	      4.25470371	     -3.82765688	     -6.57731929	      0.55376222	      0.89707135	     -0.10323027	      1.46141413	     -3.85482629	     -9.19803319	     20.34384904	      0.35506715	     15.72298428	     -6.39255150	     -7.47621994	      1.68772609	    -11.50730952	     -3.04241363	     18.14418581	      0.31667578	     13.58497320	     -5.03437274	     -7.47621994	     -8.81460922	      5.77611458	     -3.20681336	     70.64257871	     18.34060463	     60.83649423	    112.83072829	     82.56277441	     43.81760168	     12.33908151	      6.25759091	    132.59977519	     93.44072273
      0.10000000	      3.94009377	     -3.77854565	     -6.63380374	      0.55454504	      0.89431859	     -0.10345325	      2.81238038	     -4.09459626	     -9.15029027	     22.07142080	      0.38521896	     16.50549487	     -6.43024238	     -7.47816611	      3.01816353	    -11.66076732	     -2.92310734	     19.79349700	      0.34546169	     14.18791625	     -5.08186301	     -7.47816611	     -8.28719621	      5.95178766	     -0.95468615	     70.83759002	     16.89391313	     60.76902735	    112.60989452	     82.42637101	     44.96011161	      9.90661728	     17.06229922	    118.80704035	     92.04427992
      0.11666670	      3.47564419	     -3.85460436	     -6.50649317	      0.54737230	      0.89052617	     -0.09948070	      4.48710182	     -4.09255154	     -9.03224452	     24.01908650	      0.41921214	     17.37512760	     -6.31651118	     -7.47895278	      4.91273446	    -12.07273156	     -2.81623339	     21.75941865	      0.37977350	     14.73466934	     -5.08958186	     -7.47895278	     -8.47216294	      6.58266450	     -0.42079845	     72.51854167	     17.79853979	     61.63420542	    111.48063643	     82.33138847	     49.75512213	      7.38464673	     31.98817501	    115.40009858	     92.10969107
      0.13333330	      3.48219602	     -3.92600926	     -6.53423623	      0.54117016	      0.89104759	     -0.09616820	      5.94849067	     -4.16401257	     -8.69269369	     26.37750775	      0.46037436	     18.02455816	     -6.41666487	     -7.48119649	      6.16544405	    -12.45615610	     -2.92821031	     23.48660906	      0.40991866	     15.02018491	     -5.16957021	     -7.48119649	     -9.30413208	      6.38910029	      1.54748788	     73.42412480	     17.04836855	     61.18500876	    112.86586179	     81.62330489	     56.86844883	      8.30602712	     50.61365069	    113.60953648	     89.47448057
      0.15000000	      3.41525914	     -3.98132713	     -6.50618516	      0.54078632	      0.88677058	     -0.09649451	      7.46389591	     -4.29003163	     -8.61480260	     28.81581836	      0.50293091	     18.80445766	     -6.47919813	     -7.48536028	      7.52670765	    -12.81312333	     -2.86936403	     25.32793390	      0.44205584	     15.35009153	     -5.37604933	     -7.48536028	    -10.00915776	      6.63725665	      2.62174765	     74.60045694	     16.72528577	     61.43963046	    113.27537073	     80.49297854	     61.47793212	     11.50223818	     61.07414963	    113.34520334	     84.45789133
      0.16666670	      3.04967041	     -3.96083651	     -6.48874001	      0.53458573	      0.87666609	     -0.09394137	      9.61103297	     -4.50027018	     -8.56392358	     31.74307125	      0.55402111	     19.54559340	     -6.72856613	     -7.48669960	      9.55927902	    -13.16523571	     -2.71314525	     27.72165710	      0.48383419	     16.00786457	     -5.60744979	     -7.48669960	    -10.42154071	      6.83998303	      2.97033653	     76.60153271	     17.19412917	     60.65691338	    112.40948669	     79.44541381	     64.08631351	     13.67270013	     61.66797020	    113.25018660	     83.29826515
      0.18333330	      3.22357184	     -3.89184995	     -6.40180711	      0.52817439	      0.87284703	     -0.09864469	     11.18909344	     -4.92233052	     -8.58417390	     34.56087917	      0.60320113	     20.50445918	     -6.47448857	     -7.48698172	     11.07246993	    -13.38126192	     -2.72917220	     30.11755569	      0.52565051	     16.77803481	     -5.56225406	     -7.48698172	    -11.80719090	      6.69979312	      3.85456509	     79.44711478	     16.05306750	     60.21410487	    113.54313216	     79.09809642	     66.65332064	     13.14550722	     60.98551286	    113.35991482	     83.19748457
      0.20000000	      3.28184803	     -3.79765277	     -6.34437011	      0.53354884	      0.85970610	     -0.09445734	     12.70622244	     -5.29350683	     -8.58793219	     37.37577205	      0.65233028	     22.15908831	     -6.24269900	     -7.48824060	     12.57120919	    -13.57288766	     -2.54377632	     32.60915258	      0.56913708	     17.79890582	     -5.76599701	     -7.48824060	    -12.42368470	      6.27725412	      4.57526638	     82.01123473	     15.59044879	     58.36120563	    112.75224789	     77.75446902	     67.93273474	     10.82423346	     55.82483856	    115.46048872	     81.97733686
      0.21666670	      3.25968524	     -3.64586592	     -6.15814626	      0.52578531	      0.85239108	     -0.09809358	     14.45838291	     -5.78240480	     -8.47876372	     40.37684495	      0.70470889	     23.87277857	     -6.11088100	     -7.48908101	     14.56766923	    -13.68226535	     -2.16543345	     35.68117502	      0.62275399	     19.14887694	     -5.71333730	     -7.48908101	    -13.15261859	      6.09647255	      4.44708157	     85.02981014	     15.74760136	     56.84192322	    111.37448685	     76.89053093	     67.33870761	      7.95541515	     45.61755830	    119.96478695	     81.52732962
      0.23333330	      3.15916071	     -3.52248876	     -5.97934029	      0.51922194	      0.84982786	     -0.09433651	     16.15129944	     -6.12495988	     -8.29253695	     42.98368676	      0.75020686	     25.47707550	     -5.86153334	     -7.48990281	     16.62578839	    -13.92006636	     -1.99401255	     38.61269754	      0.67391871	     20.24082525	     -5.40911140	     -7.48990281	    -14.07644671	      5.77426011	      4.17069695	     87.59376279	     16.49744740	     56.01107926	    110.30046065	     76.72488133	     65.21805215	      7.44831513	     31.92966096	    126.95239233	     81.39249635
      0.25000000	      2.79736577	     -3.35884535	     -5.77372493	      0.51241128	      0.84240351	     -0.09874361	     18.22579043	     -6.52978746	     -8.16711786	     45.62393860	      0.79628795	     27.02854303	     -5.52393402	     -7.49049182	     19.12401554	    -14.15148089	     -1.89938561	     41.68345939	      0.72751361	     21.14736237	     -5.01066378	     -7.49049182	    -15.45086568	      5.55387199	      2.35557725	     90.92765591	     18.75749353	     55.40055024	    109.68195808	     77.42378887	     68.05405179	      9.21440222	     23.44531788	    140.94959568	     81.81969243
      0.26666670	      2.66733485	     -3.24510188	     -5.57013095	      0.50616437	      0.84293103	     -0.10342029	     19.93833748	     -6.98046833	     -8.08073343	     47.87219351	      0.83552740	     28.28640028	     -5.02515776	     -7.49115574	     21.21065084	    -14.22230396	     -1.64522078	     44.36953863	      0.77439454	     21.74683660	     -4.86992082	     -7.49115574	    -16.44004774	      5.41037980	      2.57794610	     92.82944786	     17.73673702	     54.81066436	    110.07782422	     78.32899939	     70.76572976	     13.92466446	     13.38529450	    148.14820381	     82.39663297
      0.28333330	      2.69185311	     -3.11998224	     -5.43644044	      0.50555436	      0.84209853	     -0.10287022	     21.20554124	     -7.41620580	     -8.12252183	     49.63112509	      0.86622654	     29.21063935	     -4.54298977	     -7.49182029	     22.60171156	    -14.21979294	     -1.53886668	     46.27952146	      0.80773003	     22.00304458	     -4.96030254	     -7.49182029	    -17.02414895	      4.98369372	      3.29746103	     93.24164678	     16.09876461	     55.49805480	    111.38701412	     79.30278903	     70.89900950	     17.12315561	      2.65712375	    149.14948437	     83.39143105
      0.30000000	      2.50414488	     -3.06417634	     -5.30974802	      0.49302417	      0.83430916	     -0.11230955	     23.02354346	     -7.88265573	     -8.00173396	     51.71001857	      0.90251008	     29.87984606	     -4.34699027	     -7.49201058	     24.53442904	    -14.18849037	     -1.32509675	     48.50466960	      0.84656619	     22.46841719	     -4.79188272	     -7.49201058	    -17.91717158	      4.85371611	      3.26172147	     95.28481251	     14.72054729	     56.50480149	    112.47916750	     79.84293533	     75.34087618	     17.69993279	      2.38336215	    149.44223368	     84.13706988
